<svg id="Layer_1" xmlns="http://www.w3.org/2000/svg" x="0px" y="0px" width="100px" height="88.891px" viewBox="0 0 100 88.891" enable-background="new 0 0 100 88.891"><path fill="#38b5ad" d="M90.28 66.57v.1H83.33c-2.04 0-3.7-1.66-3.7-3.7 0-2.05 1.66-3.7 3.7-3.7h5.56c2.03 0 3.7-1.67 3.7-3.7 0-2.06-1.67-3.72-3.7-3.72s-3.72-1.66-3.72-3.7c0-2.05 1.66-3.7 3.7-3.7.26 0 .5.02.75.07 5.8.4 10.37 5.15 10.37 11.04 0 5.66-4.24 10.32-9.72 11z"/><path fill="#38b5ad" d="M70.37 44.44c-2.04 0-3.7-1.65-3.7-3.7 0-2.04 1.66-3.7 3.7-3.7.26 0 .5.02.75.07 5.78.4 10.36 5.17 10.36 11.05 0 5.66-4.24 10.33-9.72 11v.1H29.63c-2.04 0-3.7 1.67-3.7 3.7 0 2.06 1.65 3.72 3.7 3.72h42.14v.1c5.47.68 9.7 5.35 9.7 11 0 5.9-4.57 10.65-10.35 11.05-.25.04-.5.07-.75.07-2.04 0-3.7-1.67-3.7-3.7 0-2.06 1.66-3.72 3.7-3.72s3.7-1.66 3.7-3.7c0-2.05-1.66-3.7-3.7-3.7H28.23v-.1c-5.47-.7-9.7-5.35-9.7-11.02 0-1.95.53-3.76 1.42-5.35C8.35 53.6 0 42.6 0 29.64 0 13.27 13.27 0 29.63 0c11.12 0 20.8 6.13 25.86 15.2 1.22-.22 2.47-.38 3.76-.38 10.92 0 19.98 7.88 21.85 18.26-2.57-1.84-5.64-3.05-8.97-3.36-2.55-4.48-7.35-7.5-12.87-7.5-2.96 0-5.7.9-8.03 2.4-2.28-9.85-11.06-17.2-21.6-17.2C17.36 7.4 7.4 17.35 7.4 29.6c0 12.28 9.96 22.23 22.23 22.23h40.74c2.04 0 3.7-1.66 3.7-3.7 0-2.05-1.65-3.7-3.7-3.7z"/></svg>
